{
	"meshes":[{
		"name":"Reflector",
		"primitives":[{
			"attributes":{
				"POSITION":1,
				"TEXCOORD_0":3,
				"NORMAL":2
			},
			"indices":0,
			"material":0
		}]
	},
	{
		"name":"Chip",
		"primitives":[{
			"attributes":{
				"POSITION":5,
				"TEXCOORD_0":7,
				"NORMAL":6
			},
			"indices":4,
			"material":1
		}]
	},
	{
		"name":"Chip.1",
		"primitives":[{
			"attributes":{
				"POSITION":9,
				"TEXCOORD_0":11,
				"NORMAL":10
			},
			"indices":8,
			"material":2
		}]
	}],
	"asset":{
		"version":"2.0",
		"generator":"Created using the official Cinema 4D glTF Exporter 1.000x284978"
	},
	"scenes":[{
		"nodes":[0,
		1,
		3]
	}],
	"nodes":[{
		"name":"Reflector",
		"translation":[-44.1851692199707,
		2467.874267578125,
		-1958.5296630859376],
		"rotation":[-0.40343987941741946,
		0.0,
		0.0,
		-0.915006160736084],
		"scale":[1.0,
		1.0,
		1.0],
		"mesh":0
	},
	{
		"name":"Chip",
		"translation":[0.0,
		0.0,
		0.0],
		"rotation":[0.2896139919757843,
		-0.20278988778591157,
		0.09604634344577789,
		-0.93047034740448],
		"scale":[1.0,
		1.0,
		1.0],
		"children":[2]
	},
	{
		"name":"Chip",
		"mesh":1
	},
	{
		"name":"Chip.1",
		"translation":[0.0,
		0.0,
		0.0],
		"rotation":[0.2896139919757843,
		-0.20278988778591157,
		0.09604634344577789,
		-0.93047034740448],
		"scale":[1.0,
		1.0,
		1.0],
		"mesh":2
	}],
	"accessors":[{
		"bufferView":0,
		"type":"SCALAR",
		"componentType":5123,
		"count":36,
		"byteOffset":0,
		"min":[0],
		"max":[23]
	},
	{
		"bufferView":1,
		"type":"VEC3",
		"componentType":5126,
		"count":24,
		"byteOffset":0,
		"min":[-3333.634033203125,
		-2709.20751953125,
		-33.34611511230469],
		"max":[3333.634033203125,
		2709.20751953125,
		33.34611511230469]
	},
	{
		"bufferView":1,
		"type":"VEC3",
		"componentType":5126,
		"count":24,
		"byteOffset":12,
		"min":[-1.0,
		-1.0,
		-1.0],
		"max":[1.0,
		1.0,
		1.0]
	},
	{
		"bufferView":1,
		"type":"VEC2",
		"componentType":5126,
		"count":24,
		"byteOffset":24,
		"min":[0.0,
		0.0],
		"max":[1.0,
		1.0]
	},
	{
		"bufferView":2,
		"type":"SCALAR",
		"componentType":5123,
		"count":276,
		"byteOffset":0,
		"min":[0],
		"max":[103]
	},
	{
		"bufferView":3,
		"type":"VEC3",
		"componentType":5126,
		"count":104,
		"byteOffset":0,
		"min":[-2485.0,
		-50.0,
		-997.5],
		"max":[2485.0,
		50.0,
		997.5]
	},
	{
		"bufferView":3,
		"type":"VEC3",
		"componentType":5126,
		"count":104,
		"byteOffset":12,
		"min":[-0.9972223043441773,
		-1.0,
		-0.998767077922821],
		"max":[0.9987671375274658,
		1.0,
		0.998767077922821]
	},
	{
		"bufferView":3,
		"type":"VEC2",
		"componentType":5126,
		"count":104,
		"byteOffset":24,
		"min":[-0.00735985953360796,
		0.0],
		"max":[1.0073598623275757,
		0.9001040458679199]
	},
	{
		"bufferView":4,
		"type":"SCALAR",
		"componentType":5123,
		"count":36,
		"byteOffset":0,
		"min":[0],
		"max":[23]
	},
	{
		"bufferView":5,
		"type":"VEC3",
		"componentType":5126,
		"count":24,
		"byteOffset":0,
		"min":[-2485.0,
		-50.0,
		-997.5],
		"max":[2485.0,
		50.0,
		997.5]
	},
	{
		"bufferView":5,
		"type":"VEC3",
		"componentType":5126,
		"count":24,
		"byteOffset":12,
		"min":[-1.0,
		-1.0,
		-1.0],
		"max":[1.0,
		1.0,
		1.0]
	},
	{
		"bufferView":5,
		"type":"VEC2",
		"componentType":5126,
		"count":24,
		"byteOffset":24,
		"min":[0.0,
		0.0],
		"max":[1.0,
		0.9001040458679199]
	}],
	"bufferViews":[{
		"buffer":0,
		"byteOffset":0,
		"byteLength":72,
		"target":34963
	},
	{
		"buffer":0,
		"byteOffset":72,
		"byteLength":768,
		"target":34962,
		"byteStride":32
	},
	{
		"buffer":1,
		"byteOffset":0,
		"byteLength":552,
		"target":34963
	},
	{
		"buffer":1,
		"byteOffset":552,
		"byteLength":3328,
		"target":34962,
		"byteStride":32
	},
	{
		"buffer":2,
		"byteOffset":0,
		"byteLength":72,
		"target":34963
	},
	{
		"buffer":2,
		"byteOffset":72,
		"byteLength":768,
		"target":34962,
		"byteStride":32
	}],
	"buffers":[{
		"uri":"data:application/octet-stream;base64,",
		"byteLength":840
	},
	{
		"uri":"data:application/octet-stream;base64,",
		"byteLength":3880
	},
	{
		"uri":"data:application/octet-stream;base64,",
		"byteLength":840
	}],
	"materials":[{
		"pbrMetallicRoughness":{
			"baseColorFactor":[1.0,
			1.0,
			1.0,
			1.0],
			"metallicFactor":1.0,
			"roughnessFactor":1.0
		},
		"emissiveFactor":[0.0,
		0.0,
		0.0],
		"alphaMode":"OPAQUE",
		"doubleSided":false,
		"name":""
	},
	{
		"pbrMetallicRoughness":{
			"baseColorFactor":[1.0,
			1.0,
			1.0,
			1.0],
			"metallicFactor":1.0,
			"roughnessFactor":1.0
		},
		"emissiveFactor":[0.0,
		0.0,
		0.0],
		"alphaMode":"OPAQUE",
		"doubleSided":false,
		"name":""
	},
	{
		"pbrMetallicRoughness":{
			"baseColorFactor":[1.0,
			1.0,
			1.0,
			1.0],
			"metallicFactor":1.0,
			"roughnessFactor":1.0
		},
		"emissiveFactor":[0.0,
		0.0,
		0.0],
		"alphaMode":"OPAQUE",
		"doubleSided":false,
		"name":""
	}]
}