# WaveFront *.obj file (generated by Cinema 4D)

v -3377.8193359375 615.96881103515625 -3936.24658203125
v -3377.8193359375 4270.541015625 64.169189453125
v 3289.448974609375 615.96881103515625 -3936.24658203125
v 3289.448974609375 4270.541015625 64.169189453125
v 3289.448974609375 665.2076416015625 -3981.228515625
v 3289.448974609375 4319.77978515625 19.18710899353027
v -3377.8193359375 665.2076416015625 -3981.228515625
v -3377.8193359375 4319.77978515625 19.18710899353027
# 8 vertices

vn 0 -0.73829996585846 0.67447257041931
vn 1 0 0
vn 0 0.73829996585846 -0.67447257041931
vn -1 0 0
vn 0 0.67447251081467 0.73829996585846
vn 0 -0.67447251081467 -0.73829996585846
# 6 normals

vt 0 0 0
vt 0 1 0
vt 1 1 0
vt 1 0 0
# 4 texture coordinates

o Reflector
usemtl default
f 3/4/1 4/3/1 2/2/1 1/1/1
f 5/4/2 6/3/2 4/2/2 3/1/2
f 7/4/3 8/3/3 6/2/3 5/1/3
f 1/4/4 2/3/4 8/2/4 7/1/4
f 4/4/5 6/3/5 8/2/5 2/1/5
f 5/4/6 3/3/6 1/2/6 7/1/6

v -2630.509765625 185.38627624511719 68.66565704345703
v -2642.321533203125 194.75320434570312 80.60354614257812
v -2648.83251953125 205.87055969238281 95.56840515136719
v -2649.0322265625 217.01371765136719 111.23875427246094
v -2642.90478515625 298.39349365234375 53.4478645324707
v -2642.704833984375 287.25033569335938 37.77751159667969
v -2636.194091796875 276.13296508789062 22.81265449523926
v -2624.38232421875 266.76605224609375 10.87476634979248
v -1831.881591796875 1164.1124267578125 1531.5623779296875
v -1751.942626953125 1176.340576171875 1557.257568359375
v -1745.815185546875 1257.7203369140625 1499.4666748046875
v -1825.754150390625 1245.4921875 1473.771484375
v 2609.675537109375 -260.22036743164062 -3.2166211605072
v 2637.65283203125 -307.99224853515625 -67.52145385742188
v 2643.780517578125 -226.61247253417969 -125.31234741210938
v 2615.802978515625 -178.84059143066406 -61.00751113891602
v 1825.754150390625 -1245.4921875 -1473.771484375
v 1745.815185546875 -1257.7203369140625 -1499.4666748046875
v 1751.942626953125 -1176.340576171875 -1557.257568359375
v 1831.881591796875 -1164.1124267578125 -1531.5623779296875
v -2615.802978515625 178.84059143066406 61.00751113891602
v -2643.780517578125 226.61247253417969 125.31234741210938
v -2637.65283203125 307.99224853515625 67.52145385742188
v -2609.675537109375 260.22036743164062 3.2166211605072
v -1768.94287109375 1180.238037109375 1560.943359375
v -1788.1351318359375 1181.082763671875 1560.097900390625
v -1806.7384033203125 1178.237060546875 1554.1181640625
v -1821.8665771484375 1172.1424560546875 1543.931884765625
v -1815.7391357421875 1253.522216796875 1486.1409912109375
v -1800.61083984375 1259.6168212890625 1496.3272705078125
v -1782.0076904296875 1262.4625244140625 1502.3070068359375
v -1762.8154296875 1261.6177978515625 1503.1524658203125
v 2630.509765625 -185.38627624511719 -68.66565704345703
v 2642.321533203125 -194.75320434570312 -80.60354614257812
v 2648.83251953125 -205.87055969238281 -95.56840515136719
v 2649.0322265625 -217.01371765136719 -111.23875427246094
v 2642.90478515625 -298.39349365234375 -53.4478645324707
v 2642.704833984375 -287.25033569335938 -37.77751159667969
v 2636.194091796875 -276.13296508789062 -22.81265449523926
v 2624.38232421875 -266.76605224609375 -10.87476634979248
v 1821.8665771484375 -1172.1424560546875 -1543.931884765625
v 1806.7384033203125 -1178.237060546875 -1554.1181640625
v 1788.1351318359375 -1181.082763671875 -1560.097900390625
v 1768.94287109375 -1180.238037109375 -1560.943359375
v 1762.8154296875 -1261.6177978515625 -1503.1524658203125
v 1782.0076904296875 -1262.4625244140625 -1502.3070068359375
v 1800.61083984375 -1259.6168212890625 -1496.3272705078125
v 1815.7391357421875 -1253.522216796875 -1486.1409912109375
# 48 vertices

vn 0.36482641100883 0.5206738114357 0.77188104391098
vn 0.49879318475723 0.47654989361763 0.72395133972168
vn 0.92905706167221 -0.25813341140747 -0.26499050855637
vn 0.86455225944519 -0.33261725306511 -0.37671619653702
vn -0.36482641100883 -0.52067363262177 -0.77188116312027
vn -0.49879366159439 -0.47654944658279 -0.72395128011703
vn -0.92905712127686 0.25813344120979 0.26499047875404
vn -0.86455225944519 0.33261725306511 0.3767161667347
vn 0.06127488985658 0.81379771232605 -0.57790887355804
vn 0.06127477809787 0.81379759311676 -0.57790911197662
vn 0.06127510219812 0.81379771232605 -0.57790893316269
vn 0.06127504259348 0.81379783153534 -0.57790869474411
vn 0.06127505749464 0.81379771232605 -0.57790887355804
vn 0.06127487123013 0.81379771232605 -0.57790899276733
vn 0.0612768791616 0.81379544734955 -0.57791185379028
vn 0.06127477437258 0.81379818916321 -0.5779082775116
vn 0.06127462536097 0.81379854679108 -0.57790791988373
vn 0.06127535551786 0.81379783153534 -0.57790875434875
vn 0.06127283349633 0.81380069255829 -0.57790493965149
vn 0.06127145141363 0.81380385160446 -0.57790058851242
vn 0.06127945333719 0.81379210948944 -0.577916264534
vn 0.06127469241619 0.81379759311676 -0.57790905237198
vn 0.06127585470676 0.81379795074463 -0.57790845632553
vn -0.06127488613129 -0.81379771232605 0.57790893316269
vn -0.06127475574613 -0.81379771232605 0.57790899276733
vn -0.06127464026213 -0.81379777193069 0.57790887355804
vn -0.06127496063709 -0.81379771232605 0.57790893316269
vn -0.06127533689141 -0.81379783153534 0.57790875434875
vn -0.06127513200045 -0.81379759311676 0.57790911197662
vn -0.06127523258328 -0.81379675865173 0.57791036367416
vn -0.06127529591322 -0.81379693746567 0.57790994644165
vn -0.06127550452948 -0.81379610300064 0.57791113853455
vn -0.06127490103245 -0.81379771232605 0.57790899276733
vn -0.06127656623721 -0.81379592418671 0.57791125774384
vn -0.06127828732133 -0.81379407644272 0.57791370153427
vn -0.06127569451928 -0.81379663944244 0.57791042327881
vn -0.06127582862973 -0.81379795074463 0.57790851593018
vn -0.0612747259438 -0.8137976527214 0.57790899276733
vn -0.72836065292358 0.43233647942543 0.53157860040665
vn 0.98770296573639 -0.13287310302258 -0.08238563686609
vn -0.14383521676064 -0.5657542347908 -0.81193190813065
vn -0.98770302534103 0.13287311792374 0.08238563686609
vn -0.47833603620529 0.53212016820908 0.69860064983368
vn -0.1723438501358 0.57892727851868 0.79695725440979
vn 0.1438352316618 0.5657542347908 0.81193190813065
vn 0.98312890529633 0.05076821148396 0.1757275313139
vn 0.87603634595871 0.23362889885902 0.42187413573265
vn 0.68244886398315 0.3883535861969 0.61922931671143
vn 0.17234383523464 -0.57892721891403 -0.79695725440979
vn 0.47833603620529 -0.53212016820908 -0.69860064983368
vn 0.72836065292358 -0.43233650922775 -0.53157860040665
vn -0.98312890529633 -0.05076821148396 -0.17572750151157
vn -0.87603551149368 -0.23362976312637 -0.42187544703484
vn -0.68244791030884 -0.38835400342941 -0.61923009157181
# 54 normals

vt 0.01656280644238 0.17835032939911 0
vt 0.9834371805191 0.17835032939911 0
vt 0.9834371805191 0.15833413600922 0
vt 0.01656280644238 0.15833413600922 0
vt 0.01661113463342 0.11991214752197 0
vt 0.3919130563736 0.11991214752197 0
vt 0.3919130563736 0.09989595413208 0
vt 0.01661113463342 0.09989595413208 0
vt 0.01656280644238 0.1491311788559 0
vt 0.9834371805191 0.1491311788559 0
vt 0.9834371805191 0.129114985466 0
vt 0.01656280644238 0.129114985466 0
vt 0.42513534426689 0.11991214752197 0
vt 0.80043721199036 0.11991214752197 0
vt 0.80043721199036 0.09989595413208 0
vt 0.42513534426689 0.09989595413208 0
vt 0.9879275560379 1 0
vt 1 0.9879275560379 0
vt 1 0.61066401004791 0
vt 0.9879275560379 0.59859156608582 0
vt 0.01207243464887 1 0
vt 0 0.9879275560379 0
vt 0.00241448637098 0.99034208059311 0
vt 0.00965794734657 0.99758553504944 0
vt 0.00241448706947 0.60824954509735 0
vt 0 0.61066401004791 0
vt 0.01207243464887 0.59859156608582 0
vt 0.00965794827789 0.60100609064102 0
vt 0.99758553504944 0.60824954509735 0
vt 0.99034202098846 0.60100609064102 0
vt 0.99034202098846 0.99758553504944 0
vt 0.99758553504944 0.99034208059311 0
vt 0.99517101049423 0.99275654554367 0
vt 0.99275654554367 0.99517101049423 0
vt 0.00724346097559 0.60342055559158 0
vt 0.00482897413895 0.60583502054214 0
vt 0.00724346050993 0.99517101049423 0
vt 0.00482897367328 0.99275654554367 0
vt 0.99275654554367 0.60342055559158 0
vt 0.99517101049423 0.60583502054214 0
vt -0.00735985953361 0.15833413600922 0
vt -0.00735985953361 0.17835021018982 0
vt -0.00257532624528 0.17835021018982 0
vt -0.00257532671094 0.15833413600922 0
vt 1.00735986232758 0.17835021018982 0
vt 1.00735986232758 0.15833413600922 0
vt 1.00257527828217 0.15833413600922 0
vt 1.00257527828217 0.17835021018982 0
vt 0.41593232750893 0.11991214752197 0
vt 0.41593235731125 0.09989595413208 0
vt 0.41112849116325 0.09989595413208 0
vt 0.41112846136093 0.11991214752197 0
vt 1.00735986232758 0.1491311788559 0
vt 1.00735986232758 0.129114985466 0
vt 1.00257527828217 0.129114985466 0
vt 1.00257527828217 0.1491311788559 0
vt 0.00220920704305 0.17835021018982 0
vt 0.00220920611173 0.15833413600922 0
vt 0.00699374079704 0.17835032939911 0
vt 0.00699373986572 0.15833413600922 0
vt 0.01177827361971 0.17835032939911 0
vt 0.01177827268839 0.15833413600922 0
vt 0.99779081344604 0.15833413600922 0
vt 0.99779081344604 0.17835021018982 0
vt 0.99300622940063 0.15833413600922 0
vt 0.99300622940063 0.17835032939911 0
vt 0.98822170495987 0.15833413600922 0
vt 0.98822170495987 0.17835032939911 0
vt 0.40632462501526 0.09989595413208 0
vt 0.40632462501526 0.11991214752197 0
vt 0.40152078866959 0.09989595413208 0
vt 0.40152075886726 0.11991214752197 0
vt 0.39671692252159 0.09989595413208 0
vt 0.39671692252159 0.11991214752197 0
vt 0.99779081344604 0.129114985466 0
vt 0.99779081344604 0.1491311788559 0
vt 0.99300622940063 0.129114985466 0
vt 0.99300622940063 0.1491311788559 0
vt 0.98822170495987 0.129114985466 0
vt 0.98822170495987 0.1491311788559 0
# 80 texture coordinates

o Chip
usemtl default
f 18/8/7 21/7/8 24/6/8 19/5/7
f 22/12/9 25/11/10 28/10/10 23/9/9
f 26/16/11 29/15/12 32/14/12 27/13/11
f 30/20/13 17/19/14 20/18/14 31/17/13
f 37/29/21 38/40/27 39/39/27 40/32/21 19/31/23 24/24/18 41/34/24 42/43/29 43/44/29 44/33/24 23/23/17 28/22/16 49/36/25 50/37/26 51/38/26 52/35/25 27/21/15 32/25/19 16/28/20 15/41/28 14/42/28 13/27/20 31/26/19 20/30/22
f 12/29/34 11/40/43 10/39/43 9/32/34 29/31/35 26/24/33 53/34/40 54/43/41 55/44/41 56/33/40 25/23/32 22/22/31 45/36/39 46/37/44 47/38/44 48/35/39 21/21/30 18/25/36 33/28/38 34/41/42 35/42/42 36/27/38 17/26/37 30/30/35
f 36/48/45 37/47/45 20/46/14 17/45/14
f 44/52/46 45/51/46 22/50/9 23/49/9
f 52/56/47 53/55/47 26/54/11 27/53/11
f 13/60/48 12/59/48 30/58/13 31/57/13
f 36/48/45 35/62/49 38/61/49 37/47/45
f 35/62/49 34/64/50 39/63/50 38/61/49
f 34/64/50 33/66/51 40/65/51 39/63/50
f 33/66/51 18/8/7 19/5/7 40/65/51
f 44/52/46 43/68/52 46/67/52 45/51/46
f 43/68/52 42/70/53 47/69/53 46/67/52
f 42/70/53 41/72/54 48/71/54 47/69/53
f 41/72/54 24/6/8 21/7/8 48/71/54
f 52/56/47 51/74/55 54/73/55 53/55/47
f 51/74/55 50/76/56 55/75/56 54/73/55
f 50/76/56 49/78/57 56/77/57 55/75/56
f 49/78/57 28/10/10 25/11/10 56/77/57
f 13/60/48 14/80/58 11/79/58 12/59/48
f 14/80/58 15/82/59 10/81/59 11/79/58
f 15/82/59 16/84/60 9/83/60 10/81/59
f 16/84/60 32/14/12 29/15/12 9/83/60

v -1805.90087890625 1194.1124267578125 1576.5623779296875
v -1799.7733154296875 1275.4921875 1518.771484375
v 2663.6337890625 -277.99224853515625 -22.52145576477051
v 2669.76123046875 -196.61247253417969 -80.31234741210938
v 1799.7733154296875 -1275.4921875 -1518.771484375
v 1805.90087890625 -1194.1124267578125 -1576.5623779296875
v -2669.76123046875 196.61247253417969 80.31234741210938
v -2663.6337890625 277.99224853515625 22.52145576477051
# 8 vertices

vn 0.43301266431808 0.49999967217445 0.75000023841858
vn 0.89930284023285 -0.29619723558426 -0.32174777984619
vn -0.43301272392273 -0.50000023841858 -0.74999988079071
vn -0.8993027806282 0.29619744420052 0.32174777984619
vn 0.06127497926354 0.8137976527214 -0.57790893316269
vn -0.06127497926354 -0.8137976527214 0.57790893316269
# 6 normals

vt 0.00460147298872 0.15833413600922 0
vt 0.00460147298872 0.17835021018982 0
vt 0.99539852142334 0.17835021018982 0
vt 0.99539852142334 0.15833413600922 0
vt 0.00460147298872 0.09989595413208 0
vt 0.00460147298872 0.11991214752197 0
vt 0.40392270684242 0.11991214752197 0
vt 0.40392270684242 0.09989595413208 0
vt 0.00460147298872 0.129114985466 0
vt 0.00460147298872 0.1491311788559 0
vt 0.99539852142334 0.1491311788559 0
vt 0.99539852142334 0.129114985466 0
vt 0.41312566399574 0.09989595413208 0
vt 0.41312566399574 0.11991214752197 0
vt 0.81244689226151 0.11991214752197 0
vt 0.81244689226151 0.09989595413208 0
vt 0 0.59859156608582 0
vt 1 0.59859156608582 0
# 18 texture coordinates

o Chip.1
usemtl default
f 59/88/61 60/87/61 58/86/61 57/85/61
f 61/92/62 62/91/62 60/90/62 59/89/62
f 63/96/63 64/95/63 62/94/63 61/93/63
f 57/100/64 58/99/64 64/98/64 63/97/64
f 60/102/65 62/3/65 64/2/65 58/101/65
f 61/102/66 59/3/66 57/2/66 63/101/66

